Coordinates
version=1
nRows=8
nColumns=36
inDegrees=yes

Units are S.I. units (second, meters, Newtons, ...)
If the header above contains a line with 'inDegrees', this indicates whether rotational values are in degrees (yes) or radians (no).

endheader
time	pelvis_tilt	pelvis_list	pelvis_rotation	pelvis_tx	pelvis_ty	pelvis_tz	hip_flexion_r	hip_adduction_r	hip_rotation_r	knee_angle_r	knee_angle_r_beta	ankle_angle_r	subtalar_angle_r	mtp_angle_r	hip_flexion_l	hip_adduction_l	hip_rotation_l	knee_angle_l	knee_angle_l_beta	ankle_angle_l	subtalar_angle_l	mtp_angle_l	lumbar_extension	lumbar_bending	lumbar_rotation	arm_flex_r	arm_add_r	arm_rot_r	elbow_flex_r	pro_sup_r	arm_flex_l	arm_add_l	arm_rot_l	elbow_flex_l	pro_sup_l
      2.95000000	    -21.75671133	     -1.39333271	      1.27180753	      1.19679139	      0.70846425	     -0.35383765	     69.43707548	     -4.68489087	      2.79568526	     86.58899618	      1.51126308	     36.84092630	    -11.28881366	     -7.49999987	     67.96664363	    -10.64561596	      1.80932522	     87.81998212	      1.53274784	     37.22926987	    -10.81627376	     -7.49999987	    -13.35470001	      1.48714013	      3.65114783	     96.36064085	    -16.26557196	     15.64750621	     76.80145280	     93.51403929	    256.65539239	   -148.54439834	    191.14174279	     97.22273409	     88.63941979
      2.96666670	    -20.19449405	     -1.38907961	      1.56525533	      1.22045526	      0.73208451	     -0.34841259	     64.43969229	     -4.96795255	      2.26232584	     82.64132464	      1.44236321	     36.01893910	    -10.92421695	     -7.49999987	     62.89866474	     -9.91626080	      1.59501542	     83.52840216	      1.45784564	     35.15674302	    -12.39518841	     -7.49999987	    -11.96650419	      1.46787625	      2.53220310	    105.08679446	    -16.18604975	     17.25394575	     79.90067514	     92.86094018	    265.89733268	   -145.35282572	    190.83189104	    101.49316926	     87.44637345
      2.98333330	    -18.04006067	     -1.35239090	      1.85451624	      1.22745796	      0.76324044	     -0.34529615	     58.06887215	     -5.05206177	      1.61917277	     77.37997090	      1.35053527	     34.54987296	    -11.07870365	     -7.49999987	     56.65103779	     -9.49178814	      1.14323997	     78.09732716	      1.36305550	     32.46970734	    -13.44572301	     -7.49999987	    -11.63233894	      1.60107981	      1.57377022	    112.75240430	    -16.15392856	     19.76548283	     77.68676128	     92.13068066	    273.97798714	   -143.84557691	    190.97122193	    102.89696524	     86.07982881
      3.00000000	    -15.65070487	     -1.43430297	      2.05595004	      1.24739415	      0.79749247	     -0.33839641	     50.58652588	     -4.80764288	      0.68407145	     70.77123820	      1.23519112	     32.29125664	    -11.46245704	     -7.49999987	     49.11129044	     -9.54096373	      0.53279848	     70.97677886	      1.23877848	     29.14752148	    -14.04082781	     -7.49999987	    -10.99155255	      1.71647935	      0.58026269	    117.34236879	    -15.23371783	     20.57793293	     75.48473052	    100.85347329	    280.27812774	   -142.44035722	    192.19887216	    101.98183856	     91.30959150
      3.01666670	    -14.03339966	     -1.45666010	      2.37854089	      1.25601295	      0.82883738	     -0.33889009	     44.05620856	     -4.67088617	     -0.34979224	     63.85657980	      1.11450757	     29.14026218	    -12.66097629	     -7.49999987	     42.77765266	     -9.71730206	     -0.59196378	     63.74919900	      1.11263342	     25.15030445	    -14.59632481	     -7.49999987	    -10.90890220	      1.83797102	      3.59169500	    125.33498253	    -15.71100121	     22.10726123	     68.18285066	     97.59910184	    286.92835413	   -146.90639112	    194.85473004	     98.68890190	     89.87867889
      3.03333330	    -12.09615200	     -1.54446496	      2.41139920	      1.27216539	      0.87157285	     -0.33935720	     36.40173855	     -4.45866868	     -1.76045277	     55.25950442	      0.96446030	     24.98364462	    -13.42387290	     -7.49999987	     35.22672720	    -10.06151878	     -2.19836840	     54.95845876	      0.95920606	     20.27021284	    -14.56305272	     -7.49999987	    -10.72239265	      1.79134763	      6.34452552	    126.78690638	    -19.13466170	     23.98598206	     67.35961482	    101.99068260	    288.17923814	   -149.20204236	    196.75247015	     97.64381431	     97.02217215
      3.05000000	     -8.72091238	     -1.54860025	      2.33182277	      1.30167776	      0.91400947	     -0.34815249	     26.17027684	     -4.30024624	     -3.46908347	     44.69482923	      0.78007193	     19.41770756	    -13.79564082	     -7.49999987	     24.47257780	    -10.16290180	     -4.75895095	     43.47741929	      0.75882412	     13.82028569	    -14.05125141	     -7.49999987	    -10.38666850	      2.24890491	      3.43401681	    120.70707994	    -24.71200558	     26.20414271	     71.78174928	    102.24783044	    286.99850996	   -143.48877488	    201.71275103	     97.85417166	     95.91792428
      3.06666670	     -4.43793412	     -1.92471235	      2.52021855	      1.32897110	      0.99156835	     -0.34834623	     12.48805179	     -3.46129068	     -6.42569552	     29.02527825	      0.50658667	     10.58974070	    -12.51942918	     -7.49999987	     10.52148081	    -10.47122424	     -9.36397405	     27.37323764	      0.47775312	      3.85048259	    -10.60610441	     -7.49999987	    -10.57426284	      3.07416308	      0.97706878	    107.58683979	    -31.91319234	     26.22930020	     79.87783277	    104.27587985	    277.68352930	   -138.28400409	    201.87118660	    102.22601396	     96.57009131
